<?xml version="1.0" encoding="utf-8"?>
<!-- By: https://github.com/Jakiboy  -->
<svg version="1.1" id="Calque_1" xmlns="http://www.w3.org/2000/svg" xmlns:xlink="http://www.w3.org/1999/xlink" x="0px" y="0px"
	 viewBox="0 0 300 100" style="enable-background:new 0 0 300 100;" xml:space="preserve">
<style type="text/css">
	.st0{fill:#3D4A5E;}
	.st1{fill:#E0E0E0;}
	.st2{fill:#61C1A3;}
	.st3{fill:none;stroke:#E0E0E0;stroke-miterlimit:10;}
</style>
<path class="st0" d="M281.9,97.6H21c-2.8,0-5-2.2-5-5V9c0-2.8,2.2-5,5-5h260.9c2.8,0,5,2.2,5,5v83.6
	C286.9,95.4,284.7,97.6,281.9,97.6z"/>
<g>
	<g>
		<path class="st1" d="M90,68.4V67c0-1.8-0.7-3.1-2-4.2c-1.3-0.9-2.8-1.4-4.7-1.4c-1.6,0-2.9,0.4-4.1,1.2c-1.2,0.8-1.8,1.9-1.8,3.3
			v0.2c0,1.5,0.6,2.6,1.9,3.4c1.1,0.6,3.1,1.2,5.9,1.7c5.6,0.8,8.4,3.4,8.4,7.7v0.5c0,2.5-0.8,4.5-2.5,5.9c-1.7,1.5-4.2,2.3-7.3,2.3
			c-3.5,0-6.3-1-8.3-3c-1.9-1.9-2.9-4.4-2.9-7.4v-1.2h3.4v1c0,2.5,0.7,4.3,2.1,5.6c1.3,1.2,3.1,1.9,5.4,1.9c2.2,0,3.9-0.5,5-1.4
			c1.1-0.9,1.6-2.2,1.6-3.7v-0.2c0-1.5-0.5-2.6-1.6-3.4c-1.1-0.8-2.6-1.3-4.6-1.6c-2-0.3-3.5-0.6-4.6-1c-1.1-0.4-2.1-0.9-3-1.5
			c-1.7-1.3-2.5-3.1-2.5-5.4v-0.5c0-2.2,0.9-4,2.6-5.4c1.7-1.4,3.9-2.1,6.7-2.1c3,0,5.5,0.8,7.4,2.5c1.8,1.6,2.6,3.6,2.6,6v1.7H90z"
			/>
		<path class="st1" d="M104.8,87.1v-2.9V63.1v-2.9h3.2v24h3.3v2.9H104.8z"/>
		<path class="st1" d="M134,86.8c-1.2,0.6-2.7,0.8-4.6,0.8c-1.9,0-3.6-0.4-5.1-1.3c-1.5-0.9-2.7-2-3.5-3.6c-0.8-1.5-1.3-3.3-1.3-5.3
			V77c0-2.1,0.4-3.9,1.3-5.4c0.9-1.6,2-2.8,3.5-3.6c1.5-0.8,3.2-1.3,5.1-1.3c1.9,0,3.5,0.4,5,1.2c1.5,0.8,2.6,2,3.4,3.4
			c0.8,1.5,1.2,3.2,1.2,5.2V78h-16.1c0.1,2.2,0.8,3.8,2.1,5c1.3,1.2,2.9,1.8,4.7,1.8c1.8,0,3.1-0.4,4.1-1.2c0.9-0.8,1.6-1.7,2.1-2.8
			l2.8,1.3C137.4,84.3,135.9,85.9,134,86.8z M122.8,75.4h12.9c-0.1-1.9-0.8-3.3-1.9-4.3c-1.2-1-2.7-1.5-4.4-1.5
			c-1.8,0-3.3,0.5-4.4,1.5C123.8,72.1,123.1,73.5,122.8,75.4z"/>
		<path class="st1" d="M156.3,86.8c-1.2,0.6-2.7,0.8-4.6,0.8c-1.9,0-3.6-0.4-5.1-1.3c-1.5-0.9-2.7-2-3.5-3.6
			c-0.8-1.5-1.3-3.3-1.3-5.3V77c0-2.1,0.4-3.9,1.3-5.4c0.9-1.6,2-2.8,3.5-3.6c1.5-0.8,3.2-1.3,5.1-1.3c1.9,0,3.5,0.4,5,1.2
			c1.5,0.8,2.6,2,3.4,3.4c0.8,1.5,1.2,3.2,1.2,5.2V78H145c0.1,2.2,0.8,3.8,2.1,5c1.3,1.2,2.9,1.8,4.7,1.8c1.8,0,3.1-0.4,4.1-1.2
			c0.9-0.8,1.6-1.7,2.1-2.8l2.8,1.3C159.7,84.3,158.2,85.9,156.3,86.8z M145.1,75.4h12.9c-0.1-1.9-0.8-3.3-1.9-4.3
			c-1.2-1-2.7-1.5-4.4-1.5c-1.8,0-3.3,0.5-4.4,1.5C146.1,72.1,145.4,73.5,145.1,75.4z"/>
		<path class="st1" d="M170.4,58.8v16.6h0.7l7.6-8.3h3.9v0.2l-8.3,9.2v0.7l9.3,9.7v0.2h-3.9l-8.5-8.8h-0.8v8.8h-3.2V58.8H170.4z"/>
		<path class="st2" d="M190.2,87.1V56.8h9.7c2.2,0,4.1,0.3,5.9,1.1c1.7,0.7,3.2,1.8,4.5,3.1s2.2,2.9,2.9,4.8c0.6,1.9,1,3.9,1,6.1
			c0,2.3-0.3,4.3-1,6.1c-0.6,1.9-1.6,3.5-2.8,4.8c-1.3,1.3-2.7,2.4-4.5,3.1c-1.8,0.7-3.7,1.1-5.9,1.1H190.2z M194.9,83.1l-0.1-0.5h5
			c1.5,0,2.9-0.3,4.1-0.7c1.2-0.5,2.2-1.2,3-2.1c0.8-0.9,1.4-2,1.9-3.3c0.4-1.3,0.6-2.8,0.6-4.5c0-1.6-0.2-3.1-0.6-4.5
			c-0.4-1.3-1.1-2.4-1.9-3.3c-0.8-0.9-1.9-1.6-3-2.1c-1.2-0.5-2.6-0.7-4.1-0.7h-5.1l0.3-0.4V83.1z"/>
		<path class="st2" d="M215.8,87.1c0-10.1,0-20.2,0-30.3h10.8c4.1,0,6.9,1.2,8.3,3.6c0.7,1.1,1,2.5,1,4.2c0,1.7-0.5,3.2-1.6,4.4
			c-0.6,0.7-1.3,1.3-2.3,1.7c2,0.7,3.5,2,4.5,3.8c0.6,1.1,1,2.4,1,3.8c0,2.8-0.9,5-2.6,6.5c-1.8,1.6-4.5,2.4-8.1,2.4H215.8z
			 M219.7,60.6v8.9h6.6c1,0,2-0.2,2.9-0.6c0.9-0.4,1.6-0.9,2-1.6c0.5-0.6,0.7-1.4,0.7-2.3c0-1.3-0.5-2.4-1.6-3.2
			c-1.1-0.8-2.5-1.2-4.4-1.2H219.7z M219.7,73.4v9.9h6.9c2.4,0,4.1-0.5,5.3-1.4c1.1-0.9,1.6-2.1,1.6-3.6c0-2-1-3.5-3.1-4.3
			c-1.1-0.4-2.3-0.6-3.9-0.6H219.7z"/>
	</g>
	<g>
		<line class="st3" x1="73.1" y1="55.6" x2="90.7" y2="44.7"/>
		<line class="st3" x1="96.6" y1="19" x2="78.3" y2="25.7"/>
		<line class="st3" x1="96.2" y1="21.7" x2="92" y2="40.1"/>
		<line class="st3" x1="95.1" y1="43.1" x2="114.6" y2="34.6"/>
		<line class="st3" x1="94" y1="46.5" x2="104.5" y2="58.2"/>
		<line class="st3" x1="98.6" y1="17.2" x2="113.4" y2="33.1"/>
		<circle class="st2" cx="75.4" cy="25.2" r="5.1"/>
		<circle class="st2" cx="71.1" cy="55.1" r="5.1"/>
		<circle class="st1" cx="97.8" cy="17.7" r="5.1"/>
		<circle class="st2" cx="115.2" cy="32.9" r="5.1"/>
		<circle class="st1" cx="106.4" cy="58.5" r="5.1"/>
		<circle class="st1" cx="91.4" cy="44.7" r="5.1"/>
	</g>
</g>
</svg>
