<?xml version="1.0" encoding="utf-8"?>
<!-- By: https://github.com/Jakiboy  -->
<svg version="1.1" id="Calque_1" xmlns="http://www.w3.org/2000/svg" xmlns:xlink="http://www.w3.org/1999/xlink" x="0px" y="0px"
	 viewBox="0 0 1366 768" style="enable-background:new 0 0 1366 768;" xml:space="preserve">
<style type="text/css">
	.st0{fill:#E0E0E0;}
	.st1{fill:#61C1A3;}
	.st2{fill:none;stroke:#E0E0E0;stroke-miterlimit:10;}
</style>
<g>
	<g>
		<path class="st0" d="M389.9,448.1v-7.8c0-9.4-3.6-16.8-10.8-22.3c-6.8-5-15.1-7.6-25.1-7.6c-8.4,0-15.6,2.1-21.8,6.3
			c-6.5,4.3-9.7,10.2-9.7,17.7v1.3c0,7.9,3.4,14,10.2,18.4c5.8,3.5,16.4,6.4,31.8,8.9c30,4.5,45,18.2,45,41.3v2.6
			c0,13.4-4.4,24-13.2,31.8C387,546.9,374,551,357.3,551c-18.7,0-33.4-5.3-44.1-16c-10.2-10.2-15.3-23.3-15.3-39.3v-6.5H316v5.2
			c0,13.3,3.7,23.2,11,29.8c7.1,6.6,16.7,9.9,29,9.9c12,0,20.9-2.5,26.8-7.6c5.6-5,8.4-11.6,8.4-19.7v-1.3c0-8.1-2.9-14.1-8.6-18.2
			c-5.8-4-13.9-6.8-24.4-8.4c-10.7-1.6-18.9-3.4-24.6-5.4c-6.1-1.9-11.3-4.6-15.8-8.2c-8.9-6.9-13.4-16.6-13.4-29v-2.6
			c0-11.7,4.7-21.3,14-29c8.9-7.5,20.9-11.2,35.9-11.2c16.3,0,29.5,4.5,39.8,13.4c9.4,8.5,14,19.2,14,32v9.1H389.9z"/>
		<path class="st0" d="M469.3,548v-15.6V419.6V404h16.9v128.4h17.7V548H469.3z"/>
		<path class="st0" d="M624.9,546.5c-6.3,3-14.5,4.5-24.4,4.5c-10.1,0-19.2-2.3-27.2-6.9c-8.1-4.6-14.3-10.9-18.8-19
			c-4.5-8.1-6.7-17.6-6.7-28.5v-2.6c0-11.1,2.2-20.7,6.7-28.7c4.6-8.5,10.8-14.9,18.6-19.2c7.9-4.5,16.9-6.7,27-6.7
			c10.1,0,18.9,2.1,26.6,6.3c7.8,4.5,13.8,10.6,17.9,18.4c4.3,7.9,6.5,17.2,6.5,27.9v7.8h-86.2c0.4,11.5,4.1,20.4,11,26.6
			c6.9,6.5,15.3,9.7,25.1,9.7c9.5,0,16.8-2.1,21.8-6.3c4.9-4,8.6-9,11.2-14.9l14.7,7.1C643.3,533.1,635.4,541.3,624.9,546.5z
			 M565,485.5h68.7c-0.7-9.9-4-17.6-9.9-22.9c-6.3-5.5-14.2-8.2-23.6-8.2c-9.5,0-17.4,2.7-23.8,8.2
			C570.4,467.8,566.6,475.4,565,485.5z"/>
		<path class="st0" d="M744,546.5c-6.3,3-14.5,4.5-24.4,4.5c-10.1,0-19.2-2.3-27.2-6.9c-8.1-4.6-14.3-10.9-18.8-19
			c-4.5-8.1-6.7-17.6-6.7-28.5v-2.6c0-11.1,2.2-20.7,6.7-28.7c4.6-8.5,10.8-14.9,18.6-19.2c7.9-4.5,16.9-6.7,27-6.7
			c10.1,0,18.9,2.1,26.6,6.3c7.8,4.5,13.8,10.6,17.9,18.4c4.3,7.9,6.5,17.2,6.5,27.9v7.8h-86.2c0.4,11.5,4.1,20.4,11,26.6
			c6.9,6.5,15.3,9.7,25.1,9.7c9.5,0,16.8-2.1,21.8-6.3c4.9-4,8.6-9,11.2-14.9l14.7,7.1C762.4,533.1,754.5,541.3,744,546.5z
			 M684.1,485.5h68.7c-0.7-9.9-4-17.6-9.9-22.9c-6.3-5.5-14.2-8.2-23.6-8.2c-9.5,0-17.4,2.7-23.8,8.2
			C689.5,467.8,685.7,475.4,684.1,485.5z"/>
		<path class="st0" d="M819.6,396.7v88.6h3.7l40.9-44.5h20.8v1.3l-44.5,49.1v3.9l49.7,51.7v1.3h-20.8l-45.6-47.1h-4.1V548h-16.9
			V396.7H819.6z"/>
		<path class="st1" d="M925.3,548V386.1h52c11.6,0,22,1.9,31.4,5.8c9.2,3.9,17.1,9.5,23.8,16.6c6.7,7.2,11.8,15.7,15.3,25.7
			c3.5,9.9,5.3,20.8,5.3,32.8c0,12-1.8,22.9-5.3,32.8c-3.5,9.9-8.6,18.5-15,25.7c-6.7,7.2-14.6,12.7-24,16.6s-19.9,5.8-31.4,5.8
			H925.3z M950.2,526.5l-0.7-2.5h26.6c8.1,0,15.5-1.4,22-3.9c6.2-2.5,11.8-6.5,16.2-11.3c4.4-4.9,7.6-10.6,9.9-17.8
			c2.3-7.2,3.5-15,3.5-23.8s-1.2-16.7-3.5-23.8c-2.3-6.9-5.8-12.9-10.2-17.8c-4.4-4.9-9.9-8.8-16.2-11.3c-6.2-2.5-13.6-3.9-21.7-3.9
			h-27.3l1.4-2.1V526.5z"/>
		<path class="st1" d="M1061.9,548c0-53.9,0-108,0-161.9h57.6c22,0,36.8,6.5,44.4,19.2c3.7,6,5.5,13.4,5.5,22.2
			c0,9-2.8,16.9-8.6,23.6c-3.2,3.9-7.2,6.9-12,9.2c10.9,3.9,19,10.6,24,20.1c3.5,6,5.1,12.7,5.1,20.1c0,15-4.6,26.6-14.1,34.7
			c-9.7,8.6-24.3,12.7-43.5,12.7H1061.9z M1083,406.5v47.6h35.1c5.5,0,10.6-1.2,15.3-3.2c4.6-2.1,8.3-4.9,10.9-8.6
			c2.5-3.5,3.9-7.6,3.9-12.3c0-7.2-2.8-12.7-8.3-17.1c-5.8-4.4-13.4-6.5-23.4-6.5H1083z M1083,474.7v53h36.8c12.7,0,22-2.5,28.2-7.4
			c5.8-4.9,8.6-11.3,8.6-19.4c0-10.9-5.5-18.5-16.6-22.9c-5.8-2.1-12.5-3.2-20.6-3.2H1083z"/>
	</g>
	<g>
		<line class="st2" x1="299.9" y1="379.6" x2="393.5" y2="321.1"/>
		<line class="st2" x1="425.2" y1="183.8" x2="327.5" y2="219.8"/>
		<line class="st2" x1="423.2" y1="198.7" x2="400.6" y2="296.5"/>
		<line class="st2" x1="417.1" y1="312.6" x2="521.3" y2="267.5"/>
		<line class="st2" x1="411.1" y1="331.2" x2="467.5" y2="393.7"/>
		<line class="st2" x1="435.9" y1="174.4" x2="514.7" y2="259.6"/>
		<circle class="st1" cx="311.7" cy="217.2" r="27.4"/>
		<circle class="st1" cx="288.8" cy="376.8" r="27.4"/>
		<circle class="st0" cx="431.5" cy="177.1" r="27.4"/>
		
			<ellipse transform="matrix(0.3783 -0.9257 0.9257 0.3783 86.8288 646.1733)" class="st1" cx="524.5" cy="258.4" rx="27.4" ry="27.4"/>
		
			<ellipse transform="matrix(0.3783 -0.9257 0.9257 0.3783 -69.0776 687.5108)" class="st0" cx="477.3" cy="395.2" rx="27.4" ry="27.4"/>
		<circle class="st0" cx="397.3" cy="321.5" r="27.4"/>
	</g>
</g>
</svg>
